<?xml version="1.0" standalone="no"?>
<!DOCTYPE svg PUBLIC "-//W3C//DTD SVG 20010904//EN"
 "http://www.w3.org/TR/2001/REC-SVG-20010904/DTD/svg10.dtd">
<svg version="1.0" xmlns="http://www.w3.org/2000/svg"
 width="512.000000pt" height="512.000000pt" viewBox="0 0 512.000000 512.000000"
 preserveAspectRatio="xMidYMid meet">
<metadata>
Created by potrace 1.11, written by Peter Selinger 2001-2013
</metadata>
<g transform="translate(0.000000,512.000000) scale(0.100000,-0.100000)"
fill="#000000" stroke="none">
<path d="M2467 5054 c-1 -1 -45 -4 -97 -7 -634 -39 -1263 -356 -1695 -853 -97
-112 -107 -125 -190 -250 -66 -99 -219 -374 -209 -374 3 0 -1 -10 -8 -22 -7
-13 -13 -25 -13 -28 -1 -3 -7 -18 -14 -35 -18 -41 -87 -253 -96 -290 -4 -16
-9 -38 -11 -47 -61 -263 -81 -528 -61 -793 7 -93 10 -117 29 -220 5 -33 12
-73 15 -89 11 -70 77 -287 118 -394 117 -300 331 -629 544 -839 28 -27 47 -53
43 -57 -4 -4 -2 -6 4 -4 5 2 41 -25 80 -59 38 -34 103 -88 144 -118 41 -31 82
-62 91 -69 41 -33 246 -150 349 -200 202 -96 443 -172 650 -206 78 -13 82 -14
195 -26 185 -19 529 -2 695 35 25 5 59 12 75 15 52 9 240 64 310 91 37 13 72
22 78 18 6 -3 7 -1 3 5 -4 7 -1 12 7 12 26 0 379 182 407 210 3 3 32 23 65 45
192 127 419 344 575 550 29 39 57 73 62 76 5 3 10 10 10 15 1 5 11 23 24 40
13 17 24 33 24 36 0 3 17 35 38 69 53 88 132 245 172 344 10 26 44 119 45 125
1 3 11 37 23 75 89 292 122 592 99 915 -39 568 -291 1129 -691 1540 -150 154
-284 265 -449 371 -101 65 -357 194 -452 229 -33 12 -67 25 -75 29 -8 4 -71
23 -140 41 -69 18 -132 35 -140 38 -19 7 -30 8 -125 22 -44 7 -91 14 -105 16
-63 11 -394 26 -403 18z"/>
</g>
</svg>
